<?xml version="1.0" encoding="UTF-8"?>
<svg version="1.1" xmlns="http://www.w3.org/2000/svg" width="1000" height="300">
<path d="M0 0 C1.22680984 -0.0033284 2.45361969 -0.0066568 3.71760559 -0.01008606 C6.30888496 -0.01513793 8.90017079 -0.01749492 11.49145508 -0.01733398 C15.42605509 -0.01951409 19.36037164 -0.03767122 23.29492188 -0.05664062 C25.82161363 -0.0595763 28.34830671 -0.06155993 30.875 -0.0625 C32.03791061 -0.06968552 33.20082123 -0.07687103 34.39897156 -0.08427429 C51.69469632 -0.03666459 66.29969324 3.57381013 78.98046875 15.8203125 C89.49890748 27.16634413 91.78679608 41.56637202 91.64453125 56.48046875 C91.65613281 57.71603516 91.66773438 58.95160156 91.6796875 60.22460938 C91.67582031 61.41892578 91.67195312 62.61324219 91.66796875 63.84375 C91.66458496 64.91536377 91.66120117 65.98697754 91.65771484 67.09106445 C91.04688892 71.93272426 89.33562811 75.18182916 85.76953125 78.48046875 C82.27584831 80.83870474 79.69447626 81.29274867 75.58088684 81.28822327 C74.61754929 81.28959793 73.65421173 81.2909726 72.66168213 81.29238892 C71.60648376 81.28879364 70.5512854 81.28519836 69.46411133 81.28149414 C68.3517662 81.28164017 67.23942108 81.28178619 66.09336853 81.28193665 C62.40858017 81.28123875 58.72384206 81.27345206 55.0390625 81.265625 C52.4874423 81.26376038 49.93582174 81.26233669 47.38420105 81.26133728 C41.34941002 81.25790638 35.31464064 81.25002106 29.27985829 81.23998779 C22.40930527 81.22881279 15.53875139 81.2233127 8.66819155 81.21829236 C-5.46470524 81.20783809 -19.59758601 81.19024727 -33.73046875 81.16796875 C-33.12703184 83.73925746 -32.51371964 86.30750091 -31.89453125 88.875 C-31.72574463 89.59884888 -31.55695801 90.32269775 -31.38305664 91.06848145 C-29.7209038 97.89810007 -27.44955566 102.71603241 -21.4375 106.6796875 C-10.25106706 112.7325016 1.28988088 112.49966271 13.6484375 112.58203125 C15.42920303 112.6007654 17.2099599 112.62034044 18.9907074 112.64071655 C23.65124374 112.6918066 28.31180879 112.73155535 32.97247314 112.76885986 C37.73888109 112.80904537 42.505172 112.86007099 47.27148438 112.91015625 C56.60408418 113.0066413 65.93675042 113.0911329 75.26953125 113.16796875 C77.27274003 117.14552802 79.27156014 121.1252763 81.26953125 125.10546875 C81.841875 126.24177734 82.41421875 127.37808594 83.00390625 128.54882812 C83.81601562 130.16821289 83.81601562 130.16821289 84.64453125 131.8203125 C85.14726563 132.82054443 85.65 133.82077637 86.16796875 134.85131836 C87.26953125 137.16796875 87.26953125 137.16796875 87.26953125 138.16796875 C75.14214685 138.21452625 63.01478408 138.24995609 50.88732815 138.27159309 C45.25468706 138.28198328 39.62210759 138.29605439 33.98950195 138.31884766 C28.54298875 138.34074728 23.09653442 138.35257311 17.64998055 138.35772324 C15.58300921 138.3613885 13.5160407 138.36854482 11.44909477 138.37942886 C-10.22791024 138.48892521 -30.06646852 137.92634585 -46.91796875 122.54296875 C-57.22089055 111.74747698 -60.21719786 96.93393754 -60.12890625 82.48046875 C-60.13177643 81.41610596 -60.13464661 80.35174316 -60.13760376 79.25512695 C-60.13962908 77.02326927 -60.13420766 74.7913932 -60.12158203 72.55957031 C-60.10550701 69.17602206 -60.12148416 65.7936681 -60.140625 62.41015625 C-60.1386423 60.22525782 -60.13479806 58.04036013 -60.12890625 55.85546875 C-60.13497894 54.86135986 -60.14105164 53.86725098 -60.14730835 52.84301758 C-60.00830043 38.71069408 -55.6583089 24.39699744 -45.7578125 13.9765625 C-32.54690261 2.19110724 -17.00419866 0.01613142 0 0 Z M-27.54296875 35.98046875 C-32.31389374 42.93238802 -32.85902174 48.45349865 -33.73046875 57.16796875 C-1.06046875 57.16796875 31.60953125 57.16796875 65.26953125 57.16796875 C65.26953125 47.51073335 63.89998958 40.88975358 57.07421875 33.8515625 C46.431841 23.92328369 32.2865417 24.68601836 18.59692383 24.77685547 C15.70931907 24.79295599 12.82310956 24.77693056 9.93554688 24.7578125 C-4.28602265 24.74118061 -16.97471472 25.41221472 -27.54296875 35.98046875 Z " fill="#FFFFFF" transform="translate(483.73046875,113.83203125)"/>
<path d="M0 0 C15.365625 -0.061875 30.73125 -0.12375 46.5625 -0.1875 C51.38560791 -0.21481201 56.20871582 -0.24212402 61.17797852 -0.27026367 C67.14050293 -0.28381348 67.14050293 -0.28381348 69.94590759 -0.28633118 C71.87443631 -0.29088985 73.80295734 -0.30133922 75.73143005 -0.31672668 C94.60712547 -0.45959879 113.606825 0.16861824 128.19140625 13.96484375 C137.98496482 24.98524119 142.17333996 37.80842877 142.11352539 52.28833008 C142.11367142 53.21564941 142.11381744 54.14296875 142.1139679 55.09838867 C142.11327269 58.15546021 142.10549864 61.21247039 142.09765625 64.26953125 C142.09579068 66.39230821 142.09436743 68.51508561 142.09336853 70.63786316 C142.08955433 76.21915887 142.07973339 81.80042846 142.06866455 87.38171387 C142.05842686 93.07934211 142.05386586 98.77697458 142.04882812 104.47460938 C142.03811015 115.64975289 142.0205222 126.82487019 142 138 C133.42 138 124.84 138 116 138 C115.98541748 135.41687988 115.97083496 132.83375977 115.95581055 130.17236328 C115.9053365 121.61077271 115.83871907 113.04936156 115.76428509 104.48794746 C115.71967338 99.30024919 115.68039714 94.1126278 115.65356445 88.92480469 C115.62743952 83.91257806 115.58697261 78.90064871 115.53681374 73.88860703 C115.52020698 71.98222443 115.50865433 70.07579048 115.50238609 68.16934586 C115.61758607 48.92765059 115.61758607 48.92765059 105.875 32.875 C98.43457686 28.02255012 90.55734656 25.9203695 81.7409668 25.79467773 C79.85371887 25.76440491 79.85371887 25.76440491 77.92834473 25.73352051 C76.61523315 25.71704468 75.30212158 25.70056885 73.94921875 25.68359375 C72.73544556 25.66494263 71.52167236 25.6462915 70.27111816 25.6270752 C65.74331847 25.55885098 61.21540068 25.49865541 56.6875 25.4375 C46.560625 25.293125 36.43375 25.14875 26 25 C26 62.29 26 99.58 26 138 C17.42 138 8.84 138 0 138 C0 92.46 0 46.92 0 0 Z " fill="#FFFFFF" transform="translate(273,114)"/>
<path d="M0 0 C29.11962878 -2.07598121 29.11962878 -2.07598121 35.19140625 2.28515625 C38.08261462 5.14216339 39.9961562 8.48405322 42 12 C43.44537108 13.83956319 44.92433709 15.65328356 46.4375 17.4375 C47.15808594 18.33339844 47.87867188 19.22929687 48.62109375 20.15234375 C51.31129265 23.37263111 54.13261899 26.43815924 57 29.5 C61.52785215 34.33647193 65.80123702 39.30943183 69.953125 44.4765625 C72.86977991 48.07228593 75.9201786 51.54386601 79 55 C83.97762636 51.11502333 87.93259896 46.8144747 92 42 C93.93423019 39.72636851 95.87274093 37.45641547 97.8125 35.1875 C98.58557495 34.28245728 98.58557495 34.28245728 99.37426758 33.35913086 C103.41746966 28.64153555 107.56319689 24.03333067 111.76171875 19.453125 C113.7428073 17.28187961 115.69329886 15.09013359 117.625 12.875 C118.4145105 12.00016968 118.4145105 12.00016968 119.2199707 11.10766602 C121.04768016 9.03143539 121.04768016 9.03143539 122.51708984 6.67260742 C125.43302194 2.57609688 127.51589807 0.30387686 132.55322266 -0.72753906 C136.71301557 -0.99541307 140.84298916 -0.78747097 145 -0.5625 C146.456907 -0.51728564 147.91394943 -0.47623319 149.37109375 -0.43945312 C152.9169077 -0.34096688 156.45757717 -0.18609172 160 0 C158.13968422 4.01838978 155.4726707 6.89211984 152.4375 10.0625 C148.65597402 14.07836454 145.00641818 18.12300027 141.5625 22.4375 C137.53488871 27.45922225 133.20654144 32.12582761 128.79711914 36.80834961 C124.78584591 41.09137503 121.05916036 45.53207101 117.4140625 50.1328125 C115.51095076 52.39314263 113.58138586 54.50388818 111.5234375 56.6171875 C110.92080078 57.24044922 110.31816406 57.86371094 109.69726562 58.50585938 C108.50308417 59.73075933 107.29636249 60.94358517 106.07617188 62.14257812 C102.82674669 65.38469137 102.82674669 65.38469137 101.9453125 69.71875 C103.05717912 72.12367631 104.02556498 73.37908755 106 75.125 C108.98491776 77.93468979 111.57169898 80.85438561 114.125 84.0625 C118.81900392 89.89785419 123.88463902 95.33116508 129.00390625 100.79296875 C132.89030168 104.94013186 136.61608947 109.20912379 140.30712891 113.53027344 C141.30503107 114.69843537 142.30316953 115.86639546 143.30151367 117.03417969 C144.34545865 118.25549003 145.38859853 119.47748904 146.4309082 120.70019531 C150.33694332 125.26823891 154.3507663 129.71606888 158.453125 134.109375 C160 136 160 136 160 138 C131.04462545 140.24965902 131.04462545 140.24965902 124.5859375 135.4921875 C121.94771344 132.88253481 119.93128332 129.92916674 118.05175781 126.73974609 C116.46089481 124.10824894 114.48528723 121.84153216 112.5 119.5 C111.79101562 118.61699219 111.08203125 117.73398438 110.3515625 116.82421875 C106.66443748 112.39599385 102.71866863 108.21618154 98.7890625 104.00390625 C96.01608547 101.02967972 93.32243494 97.99455413 90.66796875 94.9140625 C89.39690856 93.45546884 88.10370246 92.01614231 86.80078125 90.5859375 C86.06214844 89.77382812 85.32351563 88.96171875 84.5625 88.125 C83.88316406 87.38507813 83.20382812 86.64515625 82.50390625 85.8828125 C81 84 81 84 81 82 C77.4327081 84.6863259 74.68117276 87.42200407 71.9375 90.9375 C68.44953535 95.29600491 64.81952969 99.43030653 61 103.5 C56.56938337 108.22937234 52.42275212 113.10184213 48.3671875 118.16015625 C45.07937418 122.10444715 41.59232842 125.84891486 38.07226562 129.5859375 C35.15171581 132.6599769 35.15171581 132.6599769 32.77954102 136.15356445 C31 138 31 138 27.8137207 138.45410156 C26.53070068 138.4331543 25.24768066 138.41220703 23.92578125 138.390625 C23.2419487 138.38496521 22.55811615 138.37930542 21.8535614 138.37347412 C19.67249101 138.35110816 17.49307247 138.30091765 15.3125 138.25 C13.83270605 138.229935 12.3528863 138.21168422 10.87304688 138.1953125 C7.2481624 138.15124474 3.62424244 138.08221822 0 138 C4.39116649 128.87683857 12.31462739 121.50773677 19.20043945 114.19384766 C22.44435434 110.73096024 25.53367201 107.20790999 28.5 103.5 C32.49663245 98.50420943 36.79778275 93.86821172 41.18115234 89.21557617 C45.40677419 84.70504592 49.34892825 80.04766954 53.1953125 75.20703125 C54.71538697 73.34806572 56.26423676 71.65490471 58 70 C56.30341614 65.90410523 53.44239341 62.79977418 50.5625 59.5 C50.02971436 58.88342529 49.49692871 58.26685059 48.94799805 57.6315918 C45.0274307 53.11740313 41.00218427 48.70838704 36.93359375 44.32788086 C34.01519326 41.16610511 31.2570875 37.91619523 28.5625 34.5625 C24.7251248 29.79152368 20.64458406 25.32209263 16.46142578 20.8581543 C12.37735129 16.47430113 8.57444751 11.92956726 4.83984375 7.2421875 C3.0922276 5.0229624 3.0922276 5.0229624 1.25390625 3.3203125 C0 2 0 2 0 0 Z " fill="#FFFFFF" transform="translate(579,114)"/>
<path d="M0 0 C0.9491629 -0.00428513 1.89832581 -0.00857025 2.87625122 -0.01298523 C4.87826746 -0.01871162 6.88030451 -0.01924129 8.88232422 -0.01489258 C11.92842508 -0.01173625 14.97355052 -0.03520061 18.01953125 -0.06054688 C19.97135295 -0.06282056 21.92317724 -0.06352304 23.875 -0.0625 C24.77733368 -0.07170975 25.67966736 -0.08091949 26.60934448 -0.09040833 C33.05539962 -0.04377209 38.88133502 0.75821813 44.09375 4.9140625 C44.53976563 5.47480469 44.98578125 6.03554687 45.4453125 6.61328125 C46.13753906 7.44279297 46.13753906 7.44279297 46.84375 8.2890625 C49.7736836 13.09452684 50.31467817 17.68746076 50.265625 23.23046875 C50.26062988 24.39304199 50.25563477 25.55561523 50.25048828 26.75341797 C50.23228027 28.21279785 50.21407227 29.67217773 50.1953125 31.17578125 C50.1540625 35.83703125 50.1128125 40.49828125 50.0703125 45.30078125 C40.5003125 45.30078125 30.9303125 45.30078125 21.0703125 45.30078125 C21.0703125 40.02078125 21.0703125 34.74078125 21.0703125 29.30078125 C15.1303125 29.30078125 9.1903125 29.30078125 3.0703125 29.30078125 C3.02770299 35.21285106 3.62199664 38.38312095 7.68457031 42.77563477 C9.27770464 44.34733411 10.8920715 45.89770813 12.5234375 47.4296875 C13.37580994 48.26362534 14.22818237 49.09756317 15.10638428 49.95677185 C17.82602044 52.6119766 20.57117283 55.23866455 23.3203125 57.86328125 C26.05072102 60.49557249 28.77513551 63.13361135 31.49139404 65.78050232 C33.17952247 67.42285244 34.87642313 69.05624968 36.58331299 70.67909241 C44.1716031 78.01305966 49.43497262 84.85288944 50.36083984 95.70654297 C50.401412 98.8550295 50.44168242 102.00306756 50.44091797 105.15185547 C50.44528822 107.16460049 50.48167355 109.1751419 50.51953125 111.1875 C50.54178338 118.6271281 50.26099656 124.95369883 46.0703125 131.30078125 C41.86011773 135.40572115 38.02586727 137.53900335 32.13745117 137.59130859 C31.15930954 137.6040683 30.18116791 137.616828 29.17338562 137.62997437 C28.12230118 137.63220001 27.07121674 137.63442566 25.98828125 137.63671875 C24.35697014 137.64670395 24.35697014 137.64670395 22.69270325 137.65689087 C20.39207652 137.6670133 18.09142046 137.67170802 15.79077148 137.67138672 C12.28124207 137.67575211 8.77297818 137.71205623 5.26367188 137.75 C3.02604596 137.75586985 0.78841408 137.75983812 -1.44921875 137.76171875 C-3.01673637 137.7832753 -3.01673637 137.7832753 -4.61592102 137.80526733 C-10.95531095 137.76576958 -14.76291015 137.04926981 -19.9296875 133.30078125 C-24.94464106 128.01474912 -26.18627491 123.44980182 -26.125 116.25 C-26.1221701 115.59119339 -26.11934021 114.93238678 -26.11642456 114.25361633 C-26.10529674 112.16498063 -26.08020698 110.07678569 -26.0546875 107.98828125 C-26.04464809 106.56576143 -26.03552392 105.14323485 -26.02734375 103.72070312 C-26.00708946 100.24709252 -25.96792946 96.77442586 -25.9296875 93.30078125 C-16.3596875 93.30078125 -6.7896875 93.30078125 3.0703125 93.30078125 C3.0703125 98.58078125 3.0703125 103.86078125 3.0703125 109.30078125 C9.0103125 109.30078125 14.9503125 109.30078125 21.0703125 109.30078125 C21.0496875 107.65078125 21.0290625 106.00078125 21.0078125 104.30078125 C20.99621094 103.37265625 20.98460937 102.44453125 20.97265625 101.48828125 C18.80465032 93.82987068 10.66747036 87.79878908 5.08984375 82.36328125 C3.58093966 80.87674913 2.0724895 79.38975613 0.56445312 77.90234375 C-1.78115467 75.59386634 -4.12964568 73.28863507 -6.48608398 70.99121094 C-8.78253557 68.74944245 -11.06591156 66.49500458 -13.34765625 64.23828125 C-14.04876022 63.56095947 -14.7498642 62.8836377 -15.47221375 62.18579102 C-24.62288216 53.08422522 -26.13566403 44.73633406 -26.16992188 32.15942383 C-26.17960656 30.00627704 -26.21063202 27.85409393 -26.2421875 25.70117188 C-26.24872039 24.32162022 -26.25396974 22.94206177 -26.2578125 21.5625 C-26.2671582 20.31428467 -26.27650391 19.06606934 -26.28613281 17.7800293 C-25.74063143 12.45541275 -23.71832388 8.48253675 -19.6171875 5.05078125 C-19.06417969 4.57125 -18.51117188 4.09171875 -17.94140625 3.59765625 C-12.28410133 -0.04938304 -6.49234057 -0.00652834 0 0 Z " fill="#FFFFFF" transform="translate(203.9296875,113.69921875)"/>
<path d="M0 0 C0 21.78 0 43.56 0 66 C13.53 66 27.06 66 41 66 C41 74.25 41 82.5 41 91 C27.47 91 13.94 91 0 91 C0.09101524 102.15546356 0.09101524 102.15546356 0.20898438 113.31054688 C0.26313027 117.86609735 0.31424627 122.42152948 0.34643555 126.97729492 C0.37261308 130.65389949 0.41311483 134.33010235 0.46318626 138.00645638 C0.47975805 139.40288322 0.49133225 140.79937939 0.49761391 142.19589043 C0.54866729 152.51079887 0.89717814 161.69735521 8.2890625 169.50390625 C17.06378045 177.17677606 29.96927532 177.89692753 41 179 C41 187.25 41 195.5 41 204 C20.41037048 204.39595441 1.74861662 203.10849884 -13.9296875 188.16015625 C-26.04190659 175.45012377 -27.48585733 157.9310057 -27.29296875 141.1953125 C-27.28735438 139.73559003 -27.28309303 138.2758618 -27.28010559 136.81613159 C-27.26880126 133.02512235 -27.23946379 129.23447316 -27.20599365 125.44360352 C-27.17497656 121.55489977 -27.16153358 117.66613627 -27.14648438 113.77734375 C-27.11457559 106.18471482 -27.06193126 98.59245428 -27 91 C-31.29 91 -35.58 91 -40 91 C-40 82.75 -40 74.5 -40 66 C-35.71 66 -31.42 66 -27 66 C-27 46.86 -27 27.72 -27 8 C-2 0 -2 0 0 0 Z " fill="#FFFFFF" transform="translate(783,48)"/>
<path d="M0 0 C10.23 0 20.46 0 31 0 C32.67815022 9.28393203 34.35595501 18.56792631 36.03315639 27.8520298 C36.81200979 32.16327359 37.5910129 36.4744902 38.37036133 40.78564453 C39.12284881 44.94824283 39.8749389 49.11091275 40.62675667 53.27363205 C40.91326895 54.8596183 41.19992299 56.44557896 41.48672295 58.03151321 C41.88923214 60.25743152 42.29123144 62.48344136 42.69311523 64.70947266 C42.92183823 65.97522125 43.15056122 67.24096985 43.38621521 68.54507446 C43.94555143 71.69351511 44.48122371 74.84465177 45 78 C45.33 78 45.66 78 46 78 C50.62 52.26 55.24 26.52 60 0 C70.23 0 80.46 0 91 0 C87.65985986 17.57215676 84.15814825 35.09738831 80.48046875 52.6015625 C79.97176402 55.03059069 79.46324837 57.45965848 78.95491028 59.88876343 C77.63672711 66.18526852 76.31603137 72.48124383 74.99475098 78.77709961 C73.63881633 85.24039492 72.28534233 91.70420546 70.93164062 98.16796875 C68.29012311 110.77914207 65.64571398 123.38970639 63 136 C51.45 136 39.9 136 28 136 C24.34713823 118.56355285 20.69592785 101.1267627 17.04776001 83.68933296 C15.35389024 75.59327917 13.65926862 67.49738411 11.96289062 59.40185547 C10.48473908 52.34774714 9.00798429 45.29334812 7.53292274 38.23859298 C6.75147425 34.50141645 5.96931578 30.76439162 5.18548584 27.02771378 C4.4483454 23.5135047 3.7130675 19.99891119 2.97924042 16.48400879 C2.57981222 14.57327557 2.17838859 12.66295984 1.7769165 10.75265503 C1.54132019 9.62240906 1.30572388 8.49216309 1.06298828 7.32766724 C0.85650665 6.34134874 0.65002502 5.35503025 0.43728638 4.33882332 C0 2 0 2 0 0 Z " fill="#FFFFFF" transform="translate(83,115)"/>
<path d="M0 0 C25.08 0 50.16 0 76 0 C76 9.24 76 18.48 76 28 C68.08 28 60.16 28 52 28 C52 63.64 52 99.28 52 136 C42.43 136 32.86 136 23 136 C23 100.36 23 64.72 23 28 C15.41 28 7.82 28 0 28 C0 18.76 0 9.52 0 0 Z " fill="#FFFFFF" transform="translate(0,115)"/>
<path d="M0 0 C0.67675781 -0.01998047 1.35351562 -0.03996094 2.05078125 -0.06054688 C5.05820905 -0.05758097 7.02991748 0.07835696 9.453125 1.9296875 C10.99846572 5.63158579 10.8571497 9.03211286 10.75 13 C10.74484375 13.76763672 10.7396875 14.53527344 10.734375 15.32617188 C10.68870748 18.5999625 10.54104853 21.3143544 9.5 24.4375 C10.82 24.1075 12.14 23.7775 13.5 23.4375 C13.5 26.4075 13.5 29.3775 13.5 32.4375 C14.82 32.4375 16.14 32.4375 17.5 32.4375 C17.5 33.4275 17.5 34.4175 17.5 35.4375 C16.18 35.4375 14.86 35.4375 13.5 35.4375 C13.58708669 36.89695288 13.69526907 38.35515868 13.8125 39.8125 C13.87050781 40.62460938 13.92851563 41.43671875 13.98828125 42.2734375 C14.32990528 44.81671338 14.32990528 44.81671338 17.5 46.4375 C17.5 47.7575 17.5 49.0775 17.5 50.4375 C14.6875 50.25 14.6875 50.25 11.5 49.4375 C7.25480148 43.82741496 7.17717423 36.9270305 7.66796875 30.1015625 C7.88817779 28.5377592 8.18352791 26.98469688 8.5 25.4375 C7.84 25.7675 7.18 26.0975 6.5 26.4375 C4.12597499 26.50866382 1.74999323 26.52159085 -0.625 26.5 C-1.90632812 26.49097656 -3.18765625 26.48195312 -4.5078125 26.47265625 C-5.98894531 26.45525391 -5.98894531 26.45525391 -7.5 26.4375 C-7.17 25.1175 -6.84 23.7975 -6.5 22.4375 C-5.71753906 22.38851562 -4.93507813 22.33953125 -4.12890625 22.2890625 C-3.11699219 22.21429688 -2.10507812 22.13953125 -1.0625 22.0625 C-0.05316406 21.99289063 0.95617187 21.92328125 1.99609375 21.8515625 C2.82238281 21.71492188 3.64867187 21.57828125 4.5 21.4375 C4.83 20.7775 5.16 20.1175 5.5 19.4375 C4.75234375 19.38851562 4.0046875 19.33953125 3.234375 19.2890625 C2.24953125 19.21429688 1.2646875 19.13953125 0.25 19.0625 C-0.72453125 18.99289063 -1.6990625 18.92328125 -2.703125 18.8515625 C-5.42639708 18.44839652 -7.19123113 17.90960492 -9.5 16.4375 C-10.79004296 13.85741408 -10.70410224 11.88008426 -10.75 9 C-10.77578125 8.03191406 -10.8015625 7.06382812 -10.828125 6.06640625 C-10.5 3.4375 -10.5 3.4375 -9.453125 1.6171875 C-6.44321772 -0.2007965 -3.41111207 -0.03573546 0 0 Z M-5.5 4.4375 C-6.26522801 7.79208155 -6.26522801 7.79208155 -6.5 11.4375 C-5.4183906 13.26971789 -5.4183906 13.26971789 -3.5 14.4375 C-0.98710325 14.79963568 -0.98710325 14.79963568 1.6875 14.625 C2.58855469 14.59792969 3.48960937 14.57085937 4.41796875 14.54296875 C5.44857422 14.49076172 5.44857422 14.49076172 6.5 14.4375 C6.79562367 9.11579506 6.79562367 9.11579506 4.5 4.4375 C2.06306689 4.07333953 2.06306689 4.07333953 -0.625 4.25 C-1.53507813 4.27707031 -2.44515625 4.30414063 -3.3828125 4.33203125 C-4.08148437 4.36683594 -4.78015625 4.40164062 -5.5 4.4375 Z " fill="#FFFFFF" transform="translate(879.5,201.5625)"/>
<path d="M0 0 C2.495625 -0.061875 4.99125 -0.12375 7.5625 -0.1875 C8.33408447 -0.21481201 9.10566895 -0.24212402 9.90063477 -0.27026367 C14.99262265 -0.3306122 18.48938082 0.60246368 23 3 C24.50143544 6.00287088 24.26574018 9.083109 24.3125 12.375 C24.34150391 13.04789063 24.37050781 13.72078125 24.40039062 14.4140625 C24.44414879 17.83393159 24.260265 19.65704953 22.16796875 22.4140625 C19.11101833 24.65031813 16.67381968 25.12536707 12.98828125 25.09765625 C11.96408081 25.09390991 11.96408081 25.09390991 10.91918945 25.09008789 C10.05898193 25.08098389 9.19877441 25.07187988 8.3125 25.0625 C4.1978125 25.0315625 4.1978125 25.0315625 0 25 C0 16.75 0 8.5 0 0 Z M5 4 C5 9.94 5 15.88 5 22 C8.155625 21.566875 8.155625 21.566875 11.375 21.125 C12.55835938 20.96257812 13.74171875 20.80015625 14.9609375 20.6328125 C18.09566659 20.2697415 18.09566659 20.2697415 20 18 C20.31949731 15.40083917 20.31949731 15.40083917 20.25 12.5 C20.25515625 11.5203125 20.2603125 10.540625 20.265625 9.53125 C20.25075045 6.83111848 20.25075045 6.83111848 18 5 C13.23197052 3.63619656 13.23197052 3.63619656 5 4 Z " fill="#FFFFFF" transform="translate(834,195)"/>
<path d="M0 0 C2.701875 -0.061875 5.40375 -0.12375 8.1875 -0.1875 C9.02949951 -0.21481201 9.87149902 -0.24212402 10.73901367 -0.27026367 C15.31952096 -0.32089807 18.28298447 0.01917007 22 3 C23.56700442 6.13400885 23.85164561 9.63155095 23 13 C20.26234792 15.92627988 18.67461697 16.92091243 14.66796875 17.390625 C13.51941406 17.34421875 12.37085938 17.2978125 11.1875 17.25 C10.02605469 17.21390625 8.86460937 17.1778125 7.66796875 17.140625 C6.78753906 17.09421875 5.90710938 17.0478125 5 17 C5 19.64 5 22.28 5 25 C3.35 25 1.7 25 0 25 C0 16.75 0 8.5 0 0 Z M5 4 C5 7.63 5 11.26 5 15 C5.33 14.34 5.66 13.68 6 13 C7.03060547 13.05220703 7.03060547 13.05220703 8.08203125 13.10546875 C8.98308594 13.13253906 9.88414062 13.15960938 10.8125 13.1875 C11.70582031 13.22230469 12.59914063 13.25710937 13.51953125 13.29296875 C16.04765182 13.20591837 16.04765182 13.20591837 17.83203125 11.6171875 C19.22174481 10.05268459 19.22174481 10.05268459 18.875 7.9375 C18.04747907 5.6488757 18.04747907 5.6488757 15 4 C12.48415109 3.75849227 12.48415109 3.75849227 9.8125 3.875 C8.224375 3.91625 6.63625 3.9575 5 4 Z " fill="#FFFFFF" transform="translate(834,227)"/>
<path d="M0 0 C1.32 0 2.64 0 4 0 C5.67613728 3.43296095 7.33925697 6.87206883 9 10.3125 C9.47695313 11.28896484 9.95390625 12.26542969 10.4453125 13.27148438 C10.89648438 14.20927734 11.34765625 15.14707031 11.8125 16.11328125 C12.23144531 16.97735596 12.65039062 17.84143066 13.08203125 18.73168945 C14 21 14 21 14 24 C11.5625 23.625 11.5625 23.625 9 23 C8.67 22.34 8.34 21.68 8 21 C5.1840151 20.53101037 5.1840151 20.53101037 1.9375 20.375 C0.83277344 20.30023438 -0.27195312 20.22546875 -1.41015625 20.1484375 C-2.26480469 20.09945312 -3.11945312 20.05046875 -4 20 C-4.66 21.32 -5.32 22.64 -6 24 C-7.65 24 -9.3 24 -11 24 C-8.56705598 15.33263693 -4.34217123 7.82828494 0 0 Z M1 7 C0.30300448 8.45381897 -0.38233866 9.91322953 -1.0625 11.375 C-1.44535156 12.18710938 -1.82820312 12.99921875 -2.22265625 13.8359375 C-2.60744141 14.90714844 -2.60744141 14.90714844 -3 16 C-2.67 16.66 -2.34 17.32 -2 18 C-1.67 17.67 -1.34 17.34 -1 17 C1.32817964 16.63239269 3.6618385 16.29758419 6 16 C5.5504955 14.68445015 5.09010284 13.37261642 4.625 12.0625 C4.24214844 10.96615234 4.24214844 10.96615234 3.8515625 9.84765625 C3.14728587 7.81317884 3.14728587 7.81317884 1 7 Z " fill="#FFFFFF" transform="translate(843,164)"/>
<path d="M0 0 C3.60495944 -0.10770003 7.20672033 -0.18717372 10.8125 -0.25 C11.83666016 -0.28351563 12.86082031 -0.31703125 13.91601562 -0.3515625 C14.89892578 -0.36445313 15.88183594 -0.37734375 16.89453125 -0.390625 C17.80050049 -0.41157227 18.70646973 -0.43251953 19.63989258 -0.45410156 C22 0 22 0 23.80078125 1.80859375 C25.54453187 4.9950566 25.28743843 7.65221647 25.1875 11.25 C25.16042969 12.51328125 25.13335938 13.7765625 25.10546875 15.078125 C25.07066406 16.04234375 25.03585937 17.0065625 25 18 C23.68 18 22.36 18 21 18 C20.67 13.38 20.34 8.76 20 4 C17.03 3.505 17.03 3.505 14 3 C14 7.95 14 12.9 14 18 C12.68 18 11.36 18 10 18 C10 13.05 10 8.1 10 3 C8.02 3 6.04 3 4 3 C4 7.95 4 12.9 4 18 C2.68 18 1.36 18 0 18 C0 12.06 0 6.12 0 0 Z " fill="#FFFFFF" transform="translate(954,234)"/>
<path d="M0 0 C2.43868168 -0.1079859 4.87259133 -0.18726589 7.3125 -0.25 C8.00279297 -0.28351563 8.69308594 -0.31703125 9.40429688 -0.3515625 C12.51840319 -0.41173847 14.48293271 -0.41037087 16.96875 1.5625 C18.38024578 4.89876276 18.28774536 7.64116713 18.1875 11.25 C18.16042969 12.51328125 18.13335938 13.7765625 18.10546875 15.078125 C18.07066406 16.04234375 18.03585937 17.0065625 18 18 C15.39555652 18.05394705 12.79223002 18.09364469 10.1875 18.125 C9.44951172 18.14175781 8.71152344 18.15851563 7.95117188 18.17578125 C4.08753574 18.21074628 2.29096332 18.19397555 -1 16 C-1.9211208 13.30749305 -2.1733621 11.63919905 -1.42578125 8.8828125 C0 7 0 7 3.0390625 6.390625 C4.22242188 6.34421875 5.40578125 6.2978125 6.625 6.25 C7.81351563 6.19328125 9.00203125 6.1365625 10.2265625 6.078125 C11.14179687 6.05234375 12.05703125 6.0265625 13 6 C11.00812602 4.00812602 7.0505273 4.68700042 4.34765625 4.57421875 C2 4 2 4 0.68359375 1.95703125 C0.45800781 1.31121094 0.23242188 0.66539062 0 0 Z M3 11 C3.33 11.99 3.66 12.98 4 14 C7.3 14 10.6 14 14 14 C14 13.01 14 12.02 14 11 C10.37 11 6.74 11 3 11 Z " fill="#FFFFFF" transform="translate(913,202)"/>
<path d="M0 0 C2.43934225 -0.13501894 4.87124104 -0.23403897 7.3125 -0.3125 C8.34793945 -0.3753418 8.34793945 -0.3753418 9.40429688 -0.43945312 C11.42578125 -0.48828125 11.42578125 -0.48828125 15 0 C18.38982083 3.60504755 18.33256264 7.02543283 18.1875 11.8125 C18.16042969 12.97394531 18.13335938 14.13539063 18.10546875 15.33203125 C18.07066406 16.21246094 18.03585937 17.09289062 18 18 C15.41554227 18.1081866 12.83562648 18.18737237 10.25 18.25 C9.52039063 18.28351563 8.79078125 18.31703125 8.0390625 18.3515625 C4.46431972 18.41655782 2.41396437 18.2975169 -0.52734375 16.18359375 C-2 14 -2 14 -1.8125 10.8125 C-1 8 -1 8 0 7 C2.18639453 6.92741054 4.37500389 6.91626217 6.5625 6.9375 C8.35880859 6.95103516 8.35880859 6.95103516 10.19140625 6.96484375 C11.11824219 6.97644531 12.04507813 6.98804688 13 7 C12.67 6.34 12.34 5.68 12 5 C9.42048126 4.30906104 9.42048126 4.30906104 6.4375 3.875 C5.42558594 3.70742187 4.41367187 3.53984375 3.37109375 3.3671875 C2.58863281 3.24601563 1.80617188 3.12484375 1 3 C0.67 2.01 0.34 1.02 0 0 Z M3 11 C3 11.99 3 12.98 3 14 C6.3 14 9.6 14 13 14 C13 13.01 13 12.02 13 11 C9.7 11 6.4 11 3 11 Z " fill="#FFFFFF" transform="translate(868,234)"/>
<path d="M0 0 C0.67675781 -0.01998047 1.35351562 -0.03996094 2.05078125 -0.06054688 C5.22799107 -0.05741353 7.03792767 0.02274833 9.4453125 2.18359375 C11.19669286 5.92635845 11.05736309 9.39475969 10.5 13.4375 C8.77310955 16.72681514 8.0579199 17.2515267 4.5 18.4375 C2.85720783 18.55542999 1.20947306 18.61261674 -0.4375 18.625 C-1.29214844 18.63917969 -2.14679687 18.65335938 -3.02734375 18.66796875 C-5.67624285 18.42107294 -7.26635385 17.86163681 -9.5 16.4375 C-10.79004296 13.85741408 -10.70410224 11.88008426 -10.75 9 C-10.77578125 8.03191406 -10.8015625 7.06382812 -10.828125 6.06640625 C-10.5 3.4375 -10.5 3.4375 -9.453125 1.6171875 C-6.44321772 -0.2007965 -3.41111207 -0.03573546 0 0 Z M-5.5 4.4375 C-6.89431504 7.22613007 -6.75660094 9.35828868 -6.5 12.4375 C-2.80513897 14.90074069 -0.86706908 14.82741688 3.5 14.4375 C5.54451019 13.39375978 5.54451019 13.39375978 6.5 11.4375 C7.08333333 8.9375 7.08333333 8.9375 6.5 6.4375 C4.35058846 4.12887279 3.08119528 3.49420198 -0.0625 3.1875 C-2.63687147 3.36213247 -2.63687147 3.36213247 -5.5 4.4375 Z " fill="#FFFFFF" transform="translate(923.5,233.5625)"/>
<path d="M0 0 C5.94 0 11.88 0 18 0 C17.67 0.99 17.34 1.98 17 3 C10.565 3.495 10.565 3.495 4 4 C4 4.66 4 5.32 4 6 C4.92683594 6.06058594 5.85367188 6.12117187 6.80859375 6.18359375 C8.00613281 6.26738281 9.20367188 6.35117188 10.4375 6.4375 C11.63246094 6.51871094 12.82742188 6.59992188 14.05859375 6.68359375 C17 7 17 7 18 8 C18.37086093 13.8410596 18.37086093 13.8410596 18 16 C14.31912647 18.45391569 11.55644412 18.22802759 7.3125 18.125 C6.61060547 18.11597656 5.90871094 18.10695312 5.18554688 18.09765625 C3.45688475 18.07413704 1.72839855 18.03826713 0 18 C0.33 16.68 0.66 15.36 1 14 C1.85464844 13.95101562 2.70929687 13.90203125 3.58984375 13.8515625 C4.69457031 13.77679688 5.79929687 13.70203125 6.9375 13.625 C8.59072266 13.52058594 8.59072266 13.52058594 10.27734375 13.4140625 C11.62505859 13.20910156 11.62505859 13.20910156 13 13 C13.33 12.34 13.66 11.68 14 11 C13.24074219 11.01160156 12.48148438 11.02320313 11.69921875 11.03515625 C10.70535156 11.04417969 9.71148438 11.05320313 8.6875 11.0625 C7.70136719 11.07410156 6.71523438 11.08570313 5.69921875 11.09765625 C3 11 3 11 0 10 C-1.36952673 7.26094655 -1.12621361 5.02912668 -1 2 C-0.67 1.34 -0.34 0.68 0 0 Z " fill="#FFFFFF" transform="translate(982,234)"/>
<path d="M0 0 C0.33 1.32 0.66 2.64 1 4 C-2.28976808 5.09658936 -3.71303767 4.79953138 -7 4 C-7 5.32 -7 6.64 -7 8 C-5.02 8 -3.04 8 -1 8 C-1 8.99 -1 9.98 -1 11 C-2.98 11 -4.96 11 -7 11 C-7 15.95 -7 20.9 -7 26 C-8.65 26 -10.3 26 -12 26 C-12.25064392 23.14628312 -12.47597763 20.29416526 -12.6875 17.4375 C-12.76033203 16.63763672 -12.83316406 15.83777344 -12.90820312 15.01367188 C-13.29369318 9.4580799 -12.74800376 5.88603872 -10 1 C-6.1496895 -1.56687367 -4.41430237 -0.83288724 0 0 Z " fill="#FFFFFF" transform="translate(913,226)"/>
<path d="M0 0 C0 2.97 0 5.94 0 9 C1.65 9 3.3 9 5 9 C5 10.32 5 11.64 5 13 C3.35 13 1.7 13 0 13 C0.24631557 17.05085679 0.24631557 17.05085679 1 21 C2.92064793 22.5899433 2.92064793 22.5899433 5 23 C5 24.32 5 25.64 5 27 C1.6875 26.8125 1.6875 26.8125 -2 26 C-6.70412258 19.88791498 -6.47158106 11.6412243 -5.5625 4.25 C-5.376875 3.1775 -5.19125 2.105 -5 1 C-2 0 -2 0 0 0 Z " fill="#FFFFFF" transform="translate(906,193)"/>
<path d="M0 0 C0 8.91 0 17.82 0 27 C-1.32 27 -2.64 27 -4 27 C-4 18.42 -4 9.84 -4 1 C-2 0 -2 0 0 0 Z " fill="#FFFFFF" transform="translate(864,225)"/>
<path d="M0 0 C0 8.91 0 17.82 0 27 C-1.32 27 -2.64 27 -4 27 C-4 18.42 -4 9.84 -4 1 C-1 0 -1 0 0 0 Z " fill="#FFFFFF" transform="translate(938,193)"/>
<path d="M0 0 C1.08667969 0.03609375 2.17335938 0.0721875 3.29296875 0.109375 C4.12441406 0.15578125 4.95585938 0.2021875 5.8125 0.25 C5.4825 1.24 5.1525 2.23 4.8125 3.25 C0.3575 3.745 0.3575 3.745 -4.1875 4.25 C-4.5175 8.87 -4.8475 13.49 -5.1875 18.25 C-6.5075 18.25 -7.8275 18.25 -9.1875 18.25 C-9.26869503 16.00059705 -9.32677819 13.75035129 -9.375 11.5 C-9.40980469 10.24703125 -9.44460938 8.9940625 -9.48046875 7.703125 C-9.1875 4.25 -9.1875 4.25 -8.0625 1.8125 C-5.36831608 -0.43265327 -3.45109467 -0.14843418 0 0 Z " fill="#FFFFFF" transform="translate(945.1875,233.75)"/>
<path d="M0 0 C1.32 0 2.64 0 4 0 C4 5.94 4 11.88 4 18 C2.68 18 1.36 18 0 18 C0 12.06 0 6.12 0 0 Z " fill="#FFFFFF" transform="translate(893,202)"/>
<path d="M0 0 C1.32 0 2.64 0 4 0 C4 5.94 4 11.88 4 18 C2.68 18 1.36 18 0 18 C0 12.06 0 6.12 0 0 Z " fill="#FFFFFF" transform="translate(862,202)"/>
<path d="M0 0 C1.32 0 2.64 0 4 0 C4 5.94 4 11.88 4 18 C2.68 18 1.36 18 0 18 C0 12.06 0 6.12 0 0 Z " fill="#FFFFFF" transform="translate(859,170)"/>
<path d="M0 0 C2.475 0.495 2.475 0.495 5 1 C4.67 1.99 4.34 2.98 4 4 C2.68 4 1.36 4 0 4 C0 2.68 0 1.36 0 0 Z " fill="#FFFFFF" transform="translate(893,195)"/>
<path d="M0 0 C1.32 0 2.64 0 4 0 C4 1.32 4 2.64 4 4 C2.35 3.67 0.7 3.34 -1 3 C-0.67 2.01 -0.34 1.02 0 0 Z " fill="#FFFFFF" transform="translate(862,195)"/>
<path d="M0 0 C2.475 0.495 2.475 0.495 5 1 C4.67 1.99 4.34 2.98 4 4 C2.68 4 1.36 4 0 4 C0 2.68 0 1.36 0 0 Z " fill="#FFFFFF" transform="translate(859,163)"/>
</svg>
